<svg xmlns="http://www.w3.org/2000/svg" xml:space="preserve" width="456.694" height="817.993" viewBox="0 0 120.834 216.427"><path d="m132.739 103.241-3.181-6.94.29-51.187 1.734-2.314 34.414 31.233-4.338 3.47-32.1.29 31.522-.29-1.157 3.182-30.076 15.905zm33.257-29.208 23.714 20.822v34.414M131.582 42.8l-11.567-10.7s-7.809-8.097-21.979-2.024-14.17 19.087-14.17 19.087l-.579 16.773s3.181 14.17 7.23 13.592c4.049-.579 6.362-1.157 3.47-.29-2.892.868-9.832 6.941-10.121 10.7-.29 3.76-.868 13.855-.868 13.855s-4.049 7.257-9.254 8.413" style="fill:none;stroke:currentcolor;stroke-width:5;stroke-dasharray:none" transform="translate(-72.876 -23.843)"/><path d="M129.847 96.59h59.863v139.68h-59.863zm29.931 0v139.68" style="fill:none;stroke:currentcolor;stroke-width:5;stroke-dasharray:none" transform="translate(-72.876 -23.843)"/></svg>