<svg xmlns="http://www.w3.org/2000/svg" width="1025.047" height="371.731"><defs><clipPath id="a"><path d="M273 .664h118V174H273Zm0 0"/></clipPath><clipPath id="b"><path d="M663 3h96.555v168H663Zm0 0"/></clipPath></defs><path fill="#231f20" d="M4.781 130.332A4.794 4.794 0 0 1 0 125.551V7.411c0-2.63 2.152-4.778 4.781-4.778H28.68c2.629 0 4.78 2.148 4.78 4.777v118.14a4.794 4.794 0 0 1-4.78 4.782zm54.969 33.942a4.79 4.79 0 0 1-4.777-4.782V7.41a4.79 4.79 0 0 1 4.777-4.777h28.445c3.106 0 5.016 1.433 5.973 4.3l32.742 97.993c.238 1.191 2.153 1.191 2.153-.48V52.46a4.796 4.796 0 0 1 4.78-4.781h23.9a4.796 4.796 0 0 1 4.78 4.781v128.21a4.794 4.794 0 0 1-4.78 4.782h-28.204c-3.344 0-5.496-1.433-6.453-4.062L90.582 74.809c-.238-1.196-2.152-1.196-2.152.48v84.203a4.79 4.79 0 0 1-4.778 4.781z"/><path fill="#231f20" d="M211.52 169.934a4.796 4.796 0 0 1-4.782-4.782V38.481c0-1.672-.715-2.391-2.386-2.391h-68.633a4.79 4.79 0 0 1-4.778-4.777V7.41a4.79 4.79 0 0 1 4.778-4.777h136.746c2.629 0 4.781 2.148 4.781 4.777v23.903c0 2.628-2.152 4.777-4.781 4.777H242.59c-1.672 0-2.39.719-2.39 2.39v126.672c0 2.63-2.15 4.782-4.778 4.782z"/><g clip-path="url(#a)" transform="translate(0 -.664)"><path fill="#231f20" d="M332.219 139.527c10.515 0 17.445-3.828 21.031-11.472 2.152-5.02 3.348-18.645 3.348-41.11s-1.196-36.09-3.348-41.11c-3.586-7.648-10.516-11.472-21.031-11.472-10.516 0-17.45 3.825-21.031 11.473-2.153 5.02-3.348 18.644-3.348 41.11 0 22.464 1.195 36.09 3.348 41.109 3.582 7.644 10.515 11.472 21.03 11.472m0 33.696c-12.43 0-23.184-2.868-32.028-8.602-8.843-5.738-15.535-13.387-19.836-23.184-4.543-9.796-6.695-27.96-6.695-54.492 0-26.53 2.152-44.691 6.695-54.492C288.961 13.093 307.363.664 332.22.664s43.258 12.43 51.863 31.79c4.54 9.8 6.691 27.96 6.691 54.491 0 26.532-2.152 44.696-6.691 54.493-4.305 9.796-10.992 17.445-19.836 23.183-8.844 5.734-19.601 8.602-32.027 8.602"/></g><path fill="#231f20" d="M466.059 236.867a4.79 4.79 0 0 1-4.778-4.777V38.48c0-1.671-.719-2.39-2.39-2.39h-34.657c-2.629 0-4.78-2.149-4.78-4.777V7.41c0-2.629 2.151-4.777 4.78-4.777h135.754a4.79 4.79 0 0 1 4.778 4.777v23.903a4.79 4.79 0 0 1-4.778 4.777h-62.86c-1.671 0-2.39.719-2.39 2.39v193.61a4.79 4.79 0 0 1-4.777 4.777z"/><path fill="#231f20" d="M538.953 169.934c-2.625 0-4.777-2.153-4.777-4.782V54.656a4.79 4.79 0 0 1 4.777-4.777h23.902c2.63 0 4.782 2.148 4.782 4.777v23.086c0 1.672.715 2.39 2.386 2.39h35.852c1.672 0 2.39-.718 2.39-2.39V7.41c0-2.629 2.153-4.777 4.782-4.777h23.898c2.63 0 4.782 2.148 4.782 4.777v178.059a4.796 4.796 0 0 1-4.782 4.781h-23.898a4.796 4.796 0 0 1-4.781-4.781v-69.488c0-1.672-.72-2.387-2.391-2.387h-35.852c-1.671 0-2.386.715-2.386 2.387v49.171c0 2.63-3.11 4.782-5.977 4.782z"/><g clip-path="url(#b)" transform="translate(0 -.664)"><path fill="#231f20" d="M668.02 170.598a4.796 4.796 0 0 1-4.782-4.782V8.074c0-2.629 2.153-4.777 4.782-4.777h86.757a4.79 4.79 0 0 1 4.778 4.777v23.903a4.79 4.79 0 0 1-4.778 4.777H699.09c-1.676 0-2.39.719-2.39 2.39v28.68c0 1.672.714 2.39 2.39 2.39h40.027a4.796 4.796 0 0 1 4.781 4.782v23.899a4.796 4.796 0 0 1-4.78 4.78H699.09c-1.676 0-2.39.716-2.39 2.391v28.68c0 1.672.714 2.39 2.39 2.39h20.875c2.629 0 4.781 2.15 4.781 4.778v23.902a4.796 4.796 0 0 1-4.781 4.782z"/></g><path fill="#231f20" d="M214.148 337.012c10.516 0 17.446-3.824 21.032-11.473 2.148-5.02 3.347-17.687 3.347-38.48s-1.199-33.457-3.347-38.477c-3.586-7.648-10.516-11.473-21.032-11.473h-15.777c-1.672 0-2.387.715-2.387 2.391v95.121c0 1.672.715 2.39 2.387 2.39zm-46.843 33.699a4.796 4.796 0 0 1-4.782-4.781V208.191a4.794 4.794 0 0 1 4.782-4.78h46.843c24.856 0 43.258 12.429 51.864 31.784 4.539 9.801 6.691 27.246 6.691 51.864s-2.152 42.066-6.691 51.863c-8.606 19.36-27.008 31.789-51.864 31.789zm125.715 0a4.796 4.796 0 0 1-4.782-4.781V208.191a4.794 4.794 0 0 1 4.782-4.78h86.757a4.794 4.794 0 0 1 4.782 4.78v23.899c0 2.629-2.153 4.777-4.782 4.777H324.09c-1.672 0-2.39.719-2.39 2.395v28.68c0 1.671.718 2.386 2.39 2.386h53.773a4.796 4.796 0 0 1 4.782 4.781v23.903c0 2.629-2.153 4.777-4.782 4.777H324.09c-1.672 0-2.39.719-2.39 2.39v28.68c0 1.672.718 2.391 2.39 2.391h56.644c2.63 0 4.778 2.152 4.778 4.781v23.899c0 2.629-2.149 4.781-4.778 4.781zm111.617 0a4.796 4.796 0 0 1-4.782-4.781V208.191a4.794 4.794 0 0 1 4.782-4.78h41.465a4.794 4.794 0 0 1 4.78 4.78v23.899c0 2.629-2.152 4.777-4.78 4.777h-10.395c-1.672 0-2.39.719-2.39 2.395v28.68c0 1.671.718 2.386 2.39 2.386h53.773a4.796 4.796 0 0 1 4.782 4.781v23.903c0 2.629-2.153 4.777-4.782 4.777h-53.773c-1.672 0-2.39.719-2.39 2.39v28.68c0 1.672.718 2.391 2.39 2.391h56.645c2.625 0 4.777 2.152 4.777 4.781v23.899c0 2.629-2.152 4.781-4.777 4.781zm163-100.383c9.8 0 16.73-6.93 16.73-16.726 0-9.801-6.93-16.735-16.73-16.735h-20.313c-1.672 0-2.39.719-2.39 2.395v28.68c0 1.671.718 2.386 2.39 2.386zm-51.383 100.383a4.796 4.796 0 0 1-4.781-4.781V208.191a4.794 4.794 0 0 1 4.78-4.78h52.583c15.055 0 27.004 4.538 36.324 13.863 9.32 9.32 13.863 21.269 13.863 36.328 0 15.054-4.543 27.004-13.863 36.328-9.32 9.32-21.27 13.86-36.324 13.86h-21.512c-1.672 0-2.39.718-2.39 2.39v59.75a4.796 4.796 0 0 1-4.782 4.781z"/><path d="M562.887 347.727q-2.485 0-4.477.87-1.995.873-3.137 2.5-1.136 1.625-1.136 3.735-.002 3.188 2.246 4.863 2.245 1.678 5.562 2.68l.973.27q1.775.537 2.45.906.667.367.667 1.105 0 .642-.535 1.157-.537.52-1.777.52-1.642 0-2.633-.72-.986-.72-.988-1.66v-.203a.5.5 0 0 0-.133-.367.5.5 0 0 0-.367-.133h-5.2a.5.5 0 0 0-.367.133.5.5 0 0 0-.133.367v.473q-.001 2.243 1.157 3.953 1.155 1.71 3.265 2.633 2.113.92 4.93.922 2.715 0 4.762-.872c1.363-.582 2.42-1.414 3.183-2.5.757-1.08 1.14-2.37 1.14-3.87q-.001-2.315-1.41-3.938a7.25 7.25 0 0 0-3.503-2.246q-2.094-.622-2.364-.723-1.942-.602-2.882-.988c-.624-.255-1.09-.524-1.39-.805a1.33 1.33 0 0 1-.454-1.023q0-.77.621-1.203.621-.438 1.691-.438c1.032 0 1.844.274 2.45.82.6.548.906 1.158.906 1.829v.035a.5.5 0 0 0 .133.367.5.5 0 0 0 .367.133h5.195a.5.5 0 0 0 .371-.133.5.5 0 0 0 .133-.367v-.305q0-2.279-1.223-4.055t-3.351-2.75q-2.129-.972-4.742-.972m11.328.27a.5.5 0 0 0-.367.132.5.5 0 0 0-.133.371v22.457a.5.5 0 0 0 .133.371.5.5 0 0 0 .367.133h5.297a.5.5 0 0 0 .37-.133.5.5 0 0 0 .134-.37v-12.169c0-.09.019-.137.066-.148q.066-.018.133.082l2.281 3.722a.66.66 0 0 0 .602.332h2.55a.66.66 0 0 0 .602-.332l2.281-3.722q.063-.1.133-.082.066.015.066.148v12.168a.5.5 0 0 0 .133.371.5.5 0 0 0 .371.133h5.297a.5.5 0 0 0 .367-.133.5.5 0 0 0 .133-.37V348.5a.5.5 0 0 0-.133-.371.5.5 0 0 0-.367-.133h-5.23a.67.67 0 0 0-.606.336l-4.222 6.805q-.1.2-.2 0l-4.226-6.805a.65.65 0 0 0-.602-.336zm264.672-147.425q-1.406.198-2.777.49l4.37 24.98a17 17 0 0 1 2.786-.488zm12.02.014-4.38 24.976q1.29.13 2.512.442l4.375-24.971a44 44 0 0 0-2.507-.447m-25.567 4.4a41 41 0 0 0-2.93 1.707l12.575 21.936a17 17 0 0 1 2.945-1.682zm39.5.268-12.59 21.93q1.086.527 2.079 1.195l12.57-21.91a42 42 0 0 0-2.059-1.215m-50.797 8.46a43 43 0 0 0-2.539 3.044l19.219 16.246a16.7 16.7 0 0 1 2.586-3.014h-.002zm62.368.905-19.207 16.217c.473.5.917 1.032 1.324 1.586l19.199-16.21a40 40 0 0 0-1.316-1.593m29.793 6.166v43.36h10.953v-13.923h5.816l7.59 13.922h12.605l-10.609-16.943q2.794-1.942 4.594-4.936 1.793-2.993 1.793-6.703-.001-6.96-4.477-10.867-4.477-3.91-12.465-3.91zm33.828.002v9.299h13.289v34.058h11.582v-34.058h13.293v-9.3zm39.418 0 14.035 20.764-15.063 22.593h13.121l8.27-14.722 8.73 14.722h13.578l-15.003-22.082 14.207-21.275H1008.2l-7.586 13.35-7.645-13.35zm-173.16 4.953a42 42 0 0 0-1.551 4.28l23.543 8.624a17 17 0 0 1 1.601-4.257zm110.867 3.432h3.308q7.36 0 7.36 6.279-.001 6.385-7.473 6.385h-3.195zm-56.307 7.646c.626 1.77.967 3.667.967 5.647 0 9.383-7.605 16.988-16.988 16.988-8.398 0-15.376-6.101-16.739-14.117l-23.55 8.64a42.5 42.5 0 0 0 1.917 5.354l23.407-8.584-19.106 16.166a42 42 0 0 0 3.98 4.795l17.868-15.1-11.656 20.418a42.4 42.4 0 0 0 5.859 3.432l10.953-19.18-3.82 21.824a41.3 41.3 0 0 0 7.238 1.278l3.563-20.393 3.578 20.404a41.7 41.7 0 0 0 7.57-1.34l-3.32-18.931 9.554 16.664a41.8 41.8 0 0 0 7.387-4.336l-8.77-15.28 13.407 11.321a42.4 42.4 0 0 0 5.703-6.973l-11.98-10.11 14.667 5.378a42.4 42.4 0 0 0 3.122-8.932l-12.88-4.714 13.684-.004a43 43 0 0 0 .274-4.79c0-1.875-.133-3.717-.368-5.525zm-57.846 2.883a42 42 0 0 0-.09 2.643c0 .832.033 1.657.079 2.478h25.015a17 17 0 0 1-.164-2.357c0-.941.078-1.866.227-2.764zm84.716-100.572c-3.982 0-6.415 2.304-6.415 5.59 0 1.551.44 2.74 1.32 3.62.828.8 1.993 1.294 3.57 1.528l2.223.309c.855.129 1.27.312 1.633.648.386.359.567.902.567 1.55 0 1.473-1.138 2.278-3.258 2.278-1.708 0-3.285-.39-4.45-1.555l-2.328 2.329c1.812 1.835 3.934 2.433 6.723 2.433 3.856 0 6.832-2.02 6.832-5.59 0-1.629-.442-2.972-1.422-3.906-.778-.722-1.84-1.187-3.52-1.422l-2.171-.308c-.75-.106-1.347-.391-1.707-.727-.387-.359-.547-.852-.547-1.316 0-1.27.934-2.329 2.848-2.329 1.215 0 2.613.154 3.777 1.268l2.277-2.25c-1.578-1.524-3.414-2.15-5.953-2.15m-58.204.156v18.418h3.594v-6.934h3.543c3.805 0 6.082-2.613 6.082-5.742s-2.277-5.742-6.082-5.742zm17.547 0v18.418h3.598v-7.348h2.585l3.598 7.348h4.164l-4.113-7.942c1.785-.644 3.363-2.25 3.363-4.835 0-3.078-2.226-5.641-5.976-5.641zm18.223 0v18.418h12.128v-3.207h-8.535v-4.477h7.27v-3.207h-7.27v-4.32h8.535v-3.207zm33.543 0v18.418h12.132v-3.207h-8.535v-4.477h7.266v-3.207h-7.266v-4.32h8.535v-3.207zm16.953 0v18.418h3.593v-11.305l7.297 11.305h3.207v-18.418h-3.593v11.281l-7.297-11.281zm18.324 0v3.207h4.812v15.21h3.594v-15.21h4.813v-3.207zm17.441 0v18.418h12.133v-3.207h-8.535v-4.477h7.27v-3.207h-7.27v-4.32h8.535v-3.207zm16.957 0v18.418h6.645c1.914 0 3.65-.543 4.863-1.758 2.07-2.07 1.863-4.761 1.863-7.527 0-2.77.207-5.305-1.863-7.371-1.214-1.22-2.95-1.762-4.863-1.762zm25.65 0v18.418h7.708c3.284 0 5.64-1.863 5.64-5.305 0-2.457-1.422-3.62-2.535-4.137.93-.44 2.278-1.757 2.278-3.8 0-3.156-2.099-5.176-5.692-5.176zm16.253 0 5.535 10.863v7.555h3.57v-7.555l5.535-10.863h-3.906l-3.387 7.426-3.441-7.426zm-177.297 3.207h3.363c1.633 0 2.664 1.035 2.664 2.535s-1.03 2.508-2.664 2.508h-3.363zm17.55 0h3.387c1.578 0 2.614 1.013 2.614 2.434s-1.036 2.43-2.614 2.43h-3.386zm121.438 0h2.715c1.242 0 2.07.39 2.691 1.14.672.829.778 1.993.778 4.786s-.106 4.11-.778 4.94c-.622.75-1.45 1.138-2.691 1.138h-2.715zm25.649 0h3.519c1.528 0 2.38.855 2.38 2.121 0 1.27-.852 2.121-2.38 2.121h-3.52zm0 7.476h3.753c1.63 0 2.403 1.008 2.403 2.25 0 1.243-.774 2.278-2.403 2.278h-3.753z"/></svg>